# xmcd
#
# Track frame offsets:
#	150
#	7556
#	26477
#	43526
#	65042
#	79184
#	100610
#	116983
#	132815
#	150075
#	169120
#	186980
#	201798
#
# Disc length: 3077 seconds
#
# Revision: 0
# Processed by: cddbd v1.5.2PL0 Copyright (c) Steve Scherf et al.
# Submitted via: audiograbber 1.83.01
#
DISCID=9a0c030d
DTITLE=Letzte Bestellung - Prost Reinheitsgebot!
DYEAR=2015
DGENRE=Folklore
TTITLE0=Reinheitsgebot-Landler
TTITLE1=Sackwagl
TTITLE2=Bierbankbruada
TTITLE3=Bittschön net
TTITLE4=Geh Bua
TTITLE5=Freibier
TTITLE6=Die Metamorphose des Endiku
TTITLE7=Sie mag koa Bier
TTITLE8=Ja was is des
TTITLE9=Im Biergartn
TTITLE10=Der letzte Gast
TTITLE11=De Fliagn im Bier
TTITLE12=Koa Frag
EXTD=
EXTT0=
EXTT1=
EXTT2=
EXTT3=
EXTT4=
EXTT5=
EXTT6=
EXTT7=
EXTT8=
EXTT9=
EXTT10=
EXTT11=
EXTT12=
PLAYORDER=
